HIERARCHY
ROOT Hips
{
	OFFSET 0.000000 0.000000 0.000000
	CHANNELS 6 Xposition Yposition Zposition Zrotation Yrotation Xrotation 
	JOINT LowerBack
	{
		OFFSET 0.000000 0.000000 0.000000
		CHANNELS 3 Zrotation Yrotation Xrotation
		JOINT Spine
		{
			OFFSET 0.028270 2.035590 -0.193380
			CHANNELS 3 Zrotation Yrotation Xrotation
			JOINT Spine1
			{
				OFFSET 0.056720 2.048850 -0.042750
				CHANNELS 3 Zrotation Yrotation Xrotation
				JOINT Neck
				{
					OFFSET 0.000000 0.000000 0.000000
					CHANNELS 3 Zrotation Yrotation Xrotation
					JOINT Neck1
					{
						OFFSET -0.054170 1.746240 0.172020
						CHANNELS 3 Zrotation Yrotation Xrotation
						JOINT Head
						{
							OFFSET 0.104070 1.761360 -0.123970
							CHANNELS 3 Zrotation Yrotation Xrotation
							End Site
							{
								OFFSET 0.000000 0.000000 0.000000
							}
						}
					}
				}
				JOINT LeftShoulder
				{
					OFFSET 0.000000 0.000000 0.000000
					CHANNELS 3 Zrotation Yrotation Xrotation
					JOINT LeftArm
					{
						OFFSET 3.362410 1.200890 -0.311210
						CHANNELS 3 Zrotation Yrotation Xrotation
						JOINT LeftForeArm
						{
							OFFSET 4.983000 -0.000000 -0.000000
							CHANNELS 3 Zrotation Yrotation Xrotation
							JOINT LeftHand
							{
								OFFSET 3.483560 -0.000000 -0.000000
								CHANNELS 3 Zrotation Yrotation Xrotation
								JOINT LeftFingerBase
								{
									OFFSET 0.000000 0.000000 0.000000
									CHANNELS 3 Zrotation Yrotation Xrotation
									JOINT LeftHandIndex1
									{
										OFFSET 0.715260 -0.000000 -0.000000
										CHANNELS 3 Zrotation Yrotation Xrotation
										End Site
										{
											OFFSET 0.000000 0.000000 0.000000
										}
									}
								}
								JOINT LThumb
								{
									OFFSET 0.000000 0.000000 0.000000
									CHANNELS 3 Zrotation Yrotation Xrotation
									End Site
									{
										OFFSET 0.000000 0.000000 0.000000
									}
								}
							}
						}
					}
				}
				JOINT RightShoulder
				{
					OFFSET 0.000000 0.000000 0.000000
					CHANNELS 3 Zrotation Yrotation Xrotation
					JOINT RightArm
					{
						OFFSET -3.136600 1.374050 -0.404650
						CHANNELS 3 Zrotation Yrotation Xrotation
						JOINT RightForeArm
						{
							OFFSET -5.241900 -0.000000 -0.000000
							CHANNELS 3 Zrotation Yrotation Xrotation
							JOINT RightHand
							{
								OFFSET -3.444170 -0.000000 -0.000000
								CHANNELS 3 Zrotation Yrotation Xrotation
								JOINT RightFingerBase
								{
									OFFSET 0.000000 0.000000 0.000000
									CHANNELS 3 Zrotation Yrotation Xrotation
									JOINT RightHandIndex1
									{
										OFFSET -0.622530 -0.000000 -0.000000
										CHANNELS 3 Zrotation Yrotation Xrotation
										End Site
										{
											OFFSET 0.000000 0.000000 0.000000
										}
									}
								}
								JOINT RThumb
								{
									OFFSET 0.000000 0.000000 0.000000
									CHANNELS 3 Zrotation Yrotation Xrotation
									End Site
									{
										OFFSET 0.000000 0.000000 0.000000
									}
								}
							}
						}
					}
				}
			}
		}
	}
}
}
MOTION
Frames: 17
Frame Time: 0.008333
-9.243815 16.791944 -2.124199 155.572355 74.487220 170.891623 1.441090 -3.308471 1.619602 -0.695671 -3.474875 -2.120913 -7.496209 -3.448136 1.764251 11.197192 -6.103778 -5.088119 -4.055203 -0.322697 0.578427 0.000000 0.000000 0.000000 1.759071 5.567575 1.942481 -21.589019 -22.593475 -8.494427 -0.404721 -77.903158 0.064290 -10.443767 -0.901703 0.117742 0.150511 0.368506 0.000000 0.000000 0.000000 0.000000 0.000000 0.000000 0.000000 19.596478 -5.992273 1.302266 68.294203 -4.254235 -26.632392 3.666321 6.192922 0.006094 1.199163 3.260384 0.032361 0.083342 -0.049370 -0.000000 0.000000 0.000000 0.000000 0.000000 0.000000 0.000000 
-9.022404 16.803132 -2.101831 157.327167 74.670329 172.535780 2.133654 -3.192088 1.464796 -0.553700 -3.396707 -2.158508 -7.496691 -3.370040 1.783783 11.136098 -5.964572 -5.050851 -4.068239 -0.323884 0.589585 0.000000 0.000000 0.000000 1.506552 5.800757 1.977784 -22.774895 -21.828087 -7.660605 -0.458655 -77.543846 0.062493 -10.526029 -0.930235 0.119910 0.139861 0.354558 -0.000000 0.000000 0.000000 0.000000 0.000000 0.000000 0.000000 19.527688 -5.775815 1.255229 68.107579 -3.758129 -26.580312 3.690098 6.341641 0.006164 1.229135 3.274676 0.033466 0.083317 -0.050076 -0.000000 0.000000 0.000000 0.000000 0.000000 0.000000 0.000000 
-8.804828 16.818271 -2.078908 159.169620 74.958117 174.259958 2.841527 -3.059249 1.349036 -0.408963 -3.302828 -2.191902 -7.489358 -3.276680 1.792469 11.076518 -5.780688 -5.007136 -4.070106 -0.324211 0.601705 0.000000 0.000000 0.000000 1.258781 6.036019 2.018101 -24.066110 -20.966192 -6.774026 -0.522845 -77.084094 0.060401 -10.594661 -0.945947 0.120685 0.127853 0.339222 -0.000000 0.000000 0.000000 0.000000 0.000000 0.000000 0.000000 19.397562 -5.496260 1.215571 67.963201 -3.162685 -26.484215 3.713299 6.521169 0.006318 1.313449 3.317754 0.036373 0.082937 -0.051194 -0.000000 0.000000 0.000000 0.000000 0.000000 0.000000 0.000000 
-8.591281 16.836564 -2.054155 160.915786 75.329844 175.884222 3.490093 -2.918156 1.278246 -0.276225 -3.196938 -2.219887 -7.472527 -3.171902 1.787067 11.036507 -5.560406 -4.956079 -4.061653 -0.323779 0.615041 0.000000 0.000000 0.000000 1.066822 6.242545 2.060568 -25.485554 -19.969154 -5.855168 -0.596969 -76.524850 0.058062 -10.658893 -0.947890 0.119966 0.114954 0.322551 0.000000 0.000000 0.000000 0.000000 0.000000 0.000000 0.000000 19.232026 -5.163755 1.183673 67.866098 -2.496109 -26.204190 3.734724 6.811826 0.006498 1.440304 3.359828 0.040683 0.082201 -0.052414 -0.000000 0.000000 0.000000 0.000000 0.000000 0.000000 0.000000 
-8.381930 16.857459 -2.027805 162.599706 75.774497 177.443394 4.084651 -2.775299 1.250772 -0.153889 -3.085463 -2.240893 -7.446035 -3.062016 1.773935 11.010858 -5.313475 -4.904452 -4.040334 -0.322341 0.627904 0.000000 0.000000 0.000000 0.886553 6.453267 2.106284 -26.945973 -18.894402 -4.908754 -0.682275 -75.842439 0.055472 -10.709251 -0.934850 0.117551 0.101240 0.304857 0.000000 0.000000 0.000000 0.000000 0.000000 0.000000 0.000000 19.018909 -4.792957 1.156148 67.818945 -1.728022 -25.848095 3.754173 7.164192 0.006770 1.628633 3.430145 0.047294 0.081043 -0.053989 -0.000000 0.000000 0.000000 0.000000 0.000000 0.000000 0.000000 
-8.176529 16.880335 -1.998919 164.076886 76.265726 178.797512 4.573435 -2.639179 1.263689 -0.051981 -2.973838 -2.255623 -7.409972 -2.952605 1.750790 11.012145 -5.053100 -4.850893 -4.008033 -0.320099 0.640839 0.000000 0.000000 0.000000 0.750184 6.632614 2.153815 -28.453772 -17.705227 -3.947992 -0.778234 -75.043021 0.052666 -10.755192 -0.906615 0.113536 0.087151 0.286158 0.000000 0.000000 0.000000 0.000000 0.000000 0.000000 0.000000 18.783100 -4.401158 1.132728 67.820670 -0.883560 -25.312486 3.770867 7.639150 0.007092 1.868348 3.507032 0.055810 0.079473 -0.055692 -0.000000 0.000000 0.000000 0.000000 0.000000 0.000000 0.000000 
-7.974830 16.904800 -1.967440 165.321862 76.784262 179.924472 4.950645 -2.515448 1.309234 0.028645 -2.867431 -2.264651 -7.365674 -2.848944 1.720861 11.040980 -4.792603 -4.798415 -3.965348 -0.317098 0.653207 0.000000 0.000000 0.000000 0.642600 6.783859 2.203426 -29.965664 -16.426559 -2.973533 -0.885556 -74.114406 0.049664 -10.797615 -0.863913 0.108021 0.072886 0.266625 0.000000 0.000000 0.000000 0.000000 0.000000 0.000000 0.000000 18.532083 -4.006275 1.110754 67.868710 0.035470 -24.602933 3.784737 8.242304 0.007477 2.161547 3.594370 0.066726 0.077490 -0.057541 -0.000000 0.000000 0.000000 0.000000 0.000000 0.000000 0.000000 
-7.776367 16.930597 -1.933194 166.287058 77.310099 -179.217822 5.208765 -2.408145 1.377680 0.086586 -2.770106 -2.268482 -7.315290 -2.754665 1.689103 11.098983 -4.545425 -4.751169 -3.913614 -0.313418 0.663967 0.000000 0.000000 0.000000 0.550812 6.920504 2.255293 -31.444366 -15.102879 -1.976784 -1.005795 -73.034352 0.046484 -10.838400 -0.808085 0.101103 0.058562 0.246418 0.000000 0.000000 0.000000 0.000000 0.000000 0.000000 0.000000 18.278835 -3.625416 1.086613 67.957964 1.020274 -23.703272 3.795690 8.991968 0.007919 2.505746 3.689111 0.079846 0.075110 -0.059485 -0.000000 0.000000 0.000000 0.000000 0.000000 0.000000 0.000000 
-7.580738 16.957628 -1.896164 166.946608 77.827794 -178.650940 5.349323 -2.318257 1.458174 0.122090 -2.683305 -2.269348 -7.260615 -2.671164 1.655460 11.184974 -4.322690 -4.707954 -3.855165 -0.309277 0.673607 0.000000 0.000000 0.000000 0.473389 7.025272 2.309094 -32.878865 -13.732499 -0.955722 -1.139504 -71.800543 0.043145 -10.883488 -0.740014 0.092979 0.044340 0.225559 0.000000 0.000000 0.000000 0.000000 0.000000 0.000000 0.000000 18.034589 -3.272642 1.059302 68.080623 2.049949 -22.575421 3.803198 9.914836 0.008402 2.889691 3.784713 0.094868 0.072378 -0.061468 -0.000000 0.000000 0.000000 0.000000 0.000000 0.000000 0.000000 
-7.387440 16.985872 -1.856467 167.279480 78.326453 -178.390595 5.378560 -2.244987 1.540600 0.136261 -2.606959 -2.268793 -7.203278 -2.598226 1.621995 11.295680 -4.136117 -4.669314 -3.792179 -0.304851 0.682060 0.000000 0.000000 0.000000 0.403780 7.094885 2.363992 -34.257023 -12.331976 0.094705 -1.287783 -70.402720 0.039643 -10.937699 -0.660659 0.083651 0.030293 0.204086 0.000000 0.000000 0.000000 0.000000 0.000000 0.000000 0.000000 17.808670 -2.962128 1.027166 68.225425 3.109574 -21.189380 3.806302 11.026977 0.008913 3.298044 3.878603 0.111491 0.069357 -0.063464 -0.000000 0.000000 0.000000 0.000000 0.000000 0.000000 0.000000 
-7.196034 17.015456 -1.814364 167.282532 78.800732 -178.434773 5.308874 -2.184717 1.615480 0.131117 -2.538497 -2.267314 -7.145785 -2.532910 1.593972 11.427505 -3.980699 -4.637323 -3.726759 -0.300252 0.688649 0.000000 0.000000 0.000000 0.326197 7.168771 2.420618 -35.559322 -10.987310 1.199681 -1.454763 -68.797142 0.036007 -11.000079 -0.572803 0.073515 0.016175 0.182219 0.000000 0.000000 0.000000 0.000000 0.000000 0.000000 0.000000 17.609029 -2.687881 0.985927 68.381483 4.165696 -19.553851 3.803238 12.358736 0.009422 3.721209 3.959349 0.128814 0.066047 -0.065404 -0.000000 0.000000 0.000000 0.000000 0.000000 0.000000 0.000000 
-7.006110 17.046466 -1.770166 166.952042 79.250213 -178.785181 5.150436 -2.133160 1.676213 0.108568 -2.474378 -2.267680 -7.087552 -2.471885 1.566800 11.573098 -3.870598 -4.606450 -3.661372 -0.295758 0.695085 0.000000 0.000000 0.000000 0.250757 7.197652 2.475513 -36.807523 -9.637104 2.342046 -1.638611 -67.008154 0.032200 -11.078389 -0.474191 0.062271 0.002225 0.159813 0.000000 0.000000 0.000000 0.000000 0.000000 0.000000 0.000000 17.438556 -2.466591 0.938757 68.529498 5.212436 -17.638264 3.791350 13.901334 0.009913 4.129481 4.032258 0.145939 0.062543 -0.067384 -0.000000 0.000000 0.000000 0.000000 0.000000 0.000000 0.000000 
-6.817345 17.079040 -1.724278 166.300635 79.680124 -179.427134 4.919141 -2.084998 1.718013 0.071560 -2.410239 -2.270177 -7.028808 -2.410613 1.543313 11.724924 -3.797849 -4.576405 -3.597408 -0.291455 0.701365 0.000000 0.000000 0.000000 0.168831 7.209046 2.527637 -38.001774 -8.336866 3.532213 -1.841922 -65.006557 0.028236 -11.171419 -0.365415 0.049917 -0.011751 0.137077 0.000000 0.000000 0.000000 0.000000 0.000000 0.000000 0.000000 17.295445 -2.288886 0.883635 68.655043 6.230117 -15.484307 3.767798 15.654996 0.010371 4.510353 4.093076 0.162263 0.058839 -0.069459 -0.000000 0.000000 0.000000 0.000000 0.000000 0.000000 0.000000 
-6.629512 17.113156 -1.677218 165.347549 80.098729 179.657862 4.630441 -2.034902 1.738275 0.023121 -2.341567 -2.276116 -6.968248 -2.344709 1.521200 11.873923 -3.764211 -4.543350 -3.536054 -0.287482 0.708633 0.000000 0.000000 0.000000 0.082090 7.185941 2.573729 -39.157947 -7.065885 4.755503 -2.063203 -62.801751 0.024097 -11.280883 -0.243015 0.036053 -0.025666 0.114072 0.000000 0.000000 0.000000 0.000000 0.000000 0.000000 0.000000 17.173705 -2.156885 0.822675 68.741766 7.218557 -13.125510 3.730218 17.591904 0.010795 4.845873 4.146647 0.176988 0.054980 -0.071785 -0.000000 0.000000 0.000000 0.000000 0.000000 0.000000 0.000000 
-6.442396 17.148763 -1.629519 164.101472 80.517576 178.476194 4.298596 -1.978702 1.736960 -0.033804 -2.264832 -2.285750 -6.904296 -2.270699 1.499993 12.011059 -3.765810 -4.505012 -3.477661 -0.283892 0.717539 0.000000 0.000000 0.000000 -0.012037 7.130646 2.611021 -40.288057 -5.825438 5.998589 -2.300920 -60.397213 0.019785 -11.405156 -0.104094 0.020277 -0.039496 0.090995 0.000000 0.000000 0.000000 0.000000 0.000000 0.000000 0.000000 17.063097 -2.066422 0.757000 68.779830 8.183884 -10.621618 3.677419 19.675416 0.011195 5.129161 4.197007 0.189912 0.050989 -0.074526 -0.000000 0.000000 0.000000 0.000000 0.000000 0.000000 0.000000 
-6.255858 17.185594 -1.581670 162.557244 80.948094 177.018810 3.935578 -1.913218 1.715405 -0.096655 -2.177328 -2.298850 -6.835569 -2.185891 1.479810 12.128882 -3.781873 -4.458884 -3.421945 -0.280672 0.728713 0.000000 0.000000 0.000000 -0.113591 7.069183 2.638668 -41.404177 -4.648201 7.255344 -2.554504 -57.782982 0.015337 -11.540126 0.053527 0.002387 -0.053334 0.068228 0.000000 0.000000 0.000000 0.000000 0.000000 0.000000 0.000000 16.949619 -1.993993 0.686094 68.768958 9.115603 -8.065946 3.608823 21.880848 0.011582 5.369830 4.240362 0.201335 0.046778 -0.077776 -0.000000 0.000000 0.000000 0.000000 0.000000 0.000000 0.000000 
-6.069831 17.223242 -1.534051 160.689481 81.401307 175.253995 3.550778 -1.836943 1.676843 -0.163344 -2.077862 -2.315784 -6.760282 -2.089308 1.457190 12.220755 -3.825183 -4.402983 -3.368692 -0.277860 0.742883 0.000000 0.000000 0.000000 -0.222123 6.969486 2.652301 -42.518315 -3.467645 8.485273 -2.815976 -55.012562 0.010743 -11.684419 0.238077 -0.018719 -0.066806 0.045903 0.000000 0.000000 0.000000 0.000000 0.000000 0.000000 0.000000 16.823400 -1.953976 0.614641 68.705375 10.046942 -5.474569 3.526704 24.150734 0.011981 5.561230 4.286940 0.211158 0.042498 -0.081705 -0.000000 0.000000 0.000000 0.000000 0.000000 0.000000 0.000000 
